PathFileType	4	(X/Y/Z)	Patient4_TMGait_0pt6_01_left_40.trc.trc
DataRate	CameraRate	NumFrames	NumMarkers	Units	OrigDataRate	OrigDataStartFrame	OrigNumFrames
84.337349397591	84.337349397591	4	33	mm	84.337349397591	89	       141
Frame#	Time	Sacral			L.Shoulder			Chest			R.Shoulder			Neck			R.ASIS			L.ASIS			R.Thigh.Superior			R.Thigh.Lateral			R.Thigh.Inferior			R.Patella			L.Thigh.Superior			L.Thigh.Lateral			L.Thigh.Inferior			L.Patella			L.Shank.Superior			L.Shank.Lateral			L.Shank.Inferior			R.Shank.Superior			R.Shank.Lateral			R.Shank.Inferior			R.Heel			R.Midfoot.Superior			R.Midfoot.Lateral			R.Toe			L.Heel			L.Midfoot.Lateral			L.Midfoot.Superior			L.Toe			L.Elbow			L.Wrist			R.Elbow			R.Wrist			
		X1	Y1	Z1	X2	Y2	Z2	X3	Y3	Z3	X4	Y4	Z4	X5	Y5	Z5	X6	Y6	Z6	X7	Y7	Z7	X8	Y8	Z8	X9	Y9	Z9	X10	Y10	Z10	X11	Y11	Z11	X12	Y12	Z12	X13	Y13	Z13	X14	Y14	Z14	X15	Y15	Z15	X16	Y16	Z16	X17	Y17	Z17	X18	Y18	Z18	X19	Y19	Z19	X20	Y20	Z20	X21	Y21	Z21	X22	Y22	Z22	X23	Y23	Z23	X24	Y24	Z24	X25	Y25	Z25	X26	Y26	Z26	X27	Y27	Z27	X28	Y28	Z28	X29	Y29	Z29	X30	Y30	Z30	X31	Y31	Z31	X32	Y32	Z32	X33	Y33	Z33	

89	49.743428571429	793.152412587774	1008.278729270490	488.750423896340	968.668483615644	1437.526890142317	311.949661994253	1071.139661153858	1366.244645772039	471.886242592719	986.529508616257	1434.558154522526	645.538249961660	947.235468292734	1495.833978051661	465.729382416767	1019.647988844701	944.271644160906	606.853941479666	1003.820561787267	960.085723051079	333.315618405048	1065.869229372588	745.374776220932	581.996918070040	983.199408729956	635.388255256875	635.755829990247	1063.128428462421	586.196743819777	556.628534134976	1065.341732199059	502.251528393395	560.232368493983	1056.399340099780	748.186585449684	358.485363527966	981.481012831712	628.772338218816	289.839610161923	1074.033242488668	549.843391824473	346.639594428929	1070.215828419969	461.882455664651	344.466048668401	999.361475452018	402.546748923282	342.292887448726	856.004181386444	364.304097407617	297.412721967171	838.099474346816	239.810372027510	359.515389430729	1048.483713670777	412.834462807759	565.334571057131	987.365535252912	300.474579870501	622.642103416456	1043.289879495592	212.768643200767	558.616031566748	927.296995860639	41.945174677772	519.232960906275	1096.911331651113	97.893694236920	557.710625542414	1009.744828935822	36.449798609089	595.019017172287	1217.491725809773	47.194641046273	585.684273425531	643.899621630056	177.591235485845	404.904327123841	699.349065346756	138.488820780431	319.765686632711	805.542631436944	145.653974912733	338.387753081924	882.833570318780	39.122566897269	299.757218105797	1018.202345916224	1088.789024059635	192.303613478463	1235.874682945844	946.763032011521	218.749456011437	933.290146829900	1082.685574974103	749.193268913998	1022.581865386701	837.637966967603	760.283674196190	
90	49.755285714286	792.625176891703	1008.892918883246	491.619177349368	966.129409001915	1438.013948636896	313.194924697234	1070.439629837067	1366.942877875368	472.059095567529	987.724154929678	1435.069160293863	646.735696678728	946.539967648568	1496.348339686150	467.214877114504	1019.594734377721	944.786102708006	607.581956678800	1002.135194834272	960.698658185896	334.382734204924	1063.376227352525	744.677988781258	583.259943852232	979.773031701112	635.473865722131	637.151346941946	1058.819800116705	585.590703069753	557.559031883612	1060.207387108008	501.812877953203	561.002566272719	1059.744902260720	752.043547755036	359.507896472746	988.867178012786	631.176368326428	289.872121819637	1083.828324475967	554.519781106751	346.377932283568	1082.079745084453	465.927637009502	343.770362327886	1010.981019284822	405.780947955698	341.547341728951	866.995673475087	369.000096702652	296.956692065613	848.160647278800	244.391768251463	358.632723588976	1042.997156766214	412.594303836934	565.992169750194	981.509277369003	300.423853471340	623.175484761340	1036.846908371818	212.605068476670	558.874687023256	920.124542128267	41.978313545457	519.389733435924	1089.814901032365	97.791333945848	557.873664883415	1002.560895040414	36.412043204507	595.156160179825	1210.328596890032	46.961701147277	585.832432805057	653.181065031841	184.254200918357	404.102702258386	708.139988913748	144.920542416038	318.653181402907	814.662466618900	150.303000594480	337.294846007692	890.400045015055	41.573750270957	297.836125585681	1012.238625252412	1087.694081688506	195.511642971339	1221.543712277287	932.529266148083	220.328498354851	943.474504274647	1082.160119500860	752.552139295597	1046.892413437213	842.552835188744	761.512822941797	
91	49.767142857143	791.989422912305	1009.378494285555	494.311360888251	963.543583187768	1438.323906310566	314.307194017714	1069.671516227950	1367.476958076765	472.095548992068	988.879853285378	1435.428849962838	647.811016848384	945.845497655503	1496.711201497953	468.594862952368	1019.377637356811	945.125730156788	608.279042412627	1000.457975977979	961.201955948691	335.399848987032	1060.994543577071	744.042442328859	584.211734355705	976.745808224085	635.526677628845	638.354976406460	1054.907977742657	585.054980669295	558.269578842954	1055.558763109204	501.343048058551	561.619901013916	1062.733549144795	755.922255805189	360.439057928831	995.640402263478	633.860245864015	289.891372764130	1092.837775176334	559.489779658345	346.125020767607	1093.282782011976	470.470067258159	343.118826204973	1022.431652051574	409.297847395537	340.731959844420	878.213566275459	372.788247652690	296.317771250726	859.495618192961	247.877668143394	357.471325428130	1037.928227679338	412.280504660388	566.487529615051	976.003222652466	300.357478456701	623.589155891964	1030.613556689187	212.359411791599	559.015160404480	912.949415129234	42.027455099460	519.528996892799	1082.748675335389	97.655903246251	557.998420622317	995.376374010211	36.382116532233	595.274403865187	1203.187407018773	46.640545449470	585.958839003982	664.441394361328	187.841069381049	402.953448868783	719.267973851899	148.902216534555	317.190600855219	825.907796746279	153.749482235687	335.826400432065	901.276297756366	44.095345415001	295.526326394956	1005.846449077382	1086.409500352514	198.467951428564	1205.913560790788	918.689061277811	221.630648820360	953.761448633993	1081.800963884686	755.766307369254	1071.260692372745	848.616655197536	762.439686558352	
92	49.779000000000	791.243009859519	1009.755563119736	496.815642701761	960.987566796917	1438.486482585573	315.300799530406	1068.858451829523	1367.855615437787	472.037508055219	989.983090952087	1435.695546373531	648.759688158266	945.172100589395	1496.953842863645	469.869076338185	1019.011212885230	945.325155966301	608.982702231769	998.789110777927	961.659067524803	336.371621504987	1058.794993016145	743.499325991702	584.852933137833	974.143227029069	635.561954340567	639.336294310973	1051.442823328345	584.605893369161	558.761217379146	1051.443674414581	500.853108680068	562.065624827811	1065.337436119117	759.816877699927	361.337758650933	1001.824929064719	636.779969506623	289.931467922788	1101.059838776125	564.685714854362	345.941375471593	1103.788694165389	475.443721839651	342.548714360238	1033.678503053303	413.033407184803	339.882846140056	889.649860064673	375.556845996592	295.487600687963	872.131703901752	250.159568543577	356.024205255177	1033.312197003630	411.896229421386	566.808744271064	970.871939365454	300.291859286412	623.884702242397	1024.602352146077	212.038612126479	559.037362388351	905.781785298377	42.087944221759	519.652859090112	1075.710994529504	97.505565241279	558.089202947629	988.202580181163	36.364746491060	595.377647431154	1196.072493949334	46.269992650823	586.071333613190	677.693705806865	188.257477127328	401.377547656010	732.769365521069	150.300624882608	315.331104614838	839.341138577929	155.829218527352	333.976679529238	915.516339033079	46.480729084423	292.892951960368	998.988096245490	1084.994003864638	201.189505903342	1189.019707814277	905.407079654269	222.659620634642	964.136510144889	1081.654723731238	758.764453297659	1095.532485705598	855.899699580702	763.016380348836	
